<svg xmlns="http://www.w3.org/2000/svg" width="37.5" height="50" viewBox="0 0 37.5 50">
  <path id="Path_1989" data-name="Path 1989" d="M70.688,3.375a27.962,27.962,0,0,1-3.369,13.477,17.058,17.058,0,0,1-9.326,8.4,17.058,17.058,0,0,1,9.326,8.4,27.962,27.962,0,0,1,3.369,13.477h.391A1.036,1.036,0,0,1,72.25,48.3v.781a1.036,1.036,0,0,1-1.172,1.172H35.922a1.036,1.036,0,0,1-1.172-1.172V48.3a1.036,1.036,0,0,1,1.172-1.172h.391a27.962,27.962,0,0,1,3.369-13.477,17.058,17.058,0,0,1,9.326-8.4,17.058,17.058,0,0,1-9.326-8.4A27.962,27.962,0,0,1,36.313,3.375h-.391A1.036,1.036,0,0,1,34.75,2.2V1.422A1.036,1.036,0,0,1,35.922.25H71.078A1.036,1.036,0,0,1,72.25,1.422V2.2a1.036,1.036,0,0,1-1.172,1.172Zm-31.25,0a23.065,23.065,0,0,0,4.1,13.818q4.1,5.713,9.961,5.713t9.961-5.713a23.065,23.065,0,0,0,4.1-13.818Zm28.125,43.75a23.065,23.065,0,0,0-4.1-13.818q-4.1-5.713-9.961-5.713t-9.961,5.713a23.065,23.065,0,0,0-4.1,13.818ZM44.32,40.875H62.68a1,1,0,0,1,1.074.879l.2.781a.979.979,0,0,1-.2,1.025,1.157,1.157,0,0,1-.879.439H44.125a1.157,1.157,0,0,1-.879-.439.979.979,0,0,1-.2-1.025l.2-.781A1,1,0,0,1,44.32,40.875Zm1.563-4.98a8.9,8.9,0,0,0,.732-.83,1.021,1.021,0,0,1,.83-.439H59.555a1.021,1.021,0,0,1,.83.439,8.9,8.9,0,0,0,.732.83,1.2,1.2,0,0,1-.977,1.855H46.859a1.2,1.2,0,0,1-.977-1.855Z" transform="translate(-34.75 -0.25)" fill="rgba(255,255,255,0.5)"/>
</svg>
