<svg xmlns="http://www.w3.org/2000/svg" width="43.75" height="50" viewBox="0 0 43.75 50">
  <path id="Path_1988" data-name="Path 1988" d="M70.688,6.5a4.668,4.668,0,0,1,4.688,4.688V45.563a4.668,4.668,0,0,1-4.687,4.688H36.313a4.668,4.668,0,0,1-4.687-4.687V11.188A4.668,4.668,0,0,1,36.313,6.5H41V1.031A.691.691,0,0,1,41.781.25h1.563a.691.691,0,0,1,.781.781V6.5h18.75V1.031A.691.691,0,0,1,63.656.25h1.563A.691.691,0,0,1,66,1.031V6.5ZM72.25,45.563V19H34.75V45.563a1.5,1.5,0,0,0,1.563,1.563H70.688a1.5,1.5,0,0,0,1.563-1.562Zm0-29.687V11.188a1.5,1.5,0,0,0-1.562-1.562H36.313a1.5,1.5,0,0,0-1.562,1.563v4.688ZM42.563,37.75A1.5,1.5,0,0,1,41,36.188V26.813a1.5,1.5,0,0,1,1.563-1.562h9.375A1.5,1.5,0,0,1,53.5,26.813v9.375a1.5,1.5,0,0,1-1.562,1.563Zm1.563-9.375v6.25h6.25v-6.25Z" transform="translate(-31.625 -0.25)" fill="rgba(255,255,255,0.5)"/>
</svg>
