<svg xmlns="http://www.w3.org/2000/svg" width="56.25" height="50" viewBox="0 0 56.25 50">
  <path id="Path_1990" data-name="Path 1990" d="M33.188,34.625a1.5,1.5,0,0,1,1.563,1.563v12.5a1.5,1.5,0,0,1-1.562,1.563h-6.25a1.5,1.5,0,0,1-1.562-1.562v-12.5a1.5,1.5,0,0,1,1.563-1.562Zm-1.562,12.5V37.75H28.5v9.375ZM80.063,19a1.5,1.5,0,0,1,1.563,1.563V48.688a1.5,1.5,0,0,1-1.562,1.563h-6.25a1.5,1.5,0,0,1-1.562-1.562V20.563A1.5,1.5,0,0,1,73.813,19ZM78.5,47.125v-25H75.375v25Zm-4-38.184-8.789,6.934A5.017,5.017,0,0,1,66,17.438a4.688,4.688,0,1,1-9.375,0,5.017,5.017,0,0,1,.293-1.562L48.129,8.941a4.779,4.779,0,0,1-2.441.684,4.527,4.527,0,0,1-2.051-.488l-9.375,9.375a4.685,4.685,0,0,1-7.52,5.371,4.715,4.715,0,0,1,0-6.641,4.655,4.655,0,0,1,5.371-.879l9.375-9.375A4.527,4.527,0,0,1,41,4.938a4.52,4.52,0,0,1,1.367-3.32,4.715,4.715,0,0,1,6.641,0,4.52,4.52,0,0,1,1.367,3.32A5.017,5.017,0,0,1,50.082,6.5l8.789,6.934a4.7,4.7,0,0,1,4.883,0L72.543,6.5a5.017,5.017,0,0,1-.293-1.562,4.52,4.52,0,0,1,1.367-3.32,4.715,4.715,0,0,1,6.641,0,4.52,4.52,0,0,1,1.367,3.32,4.52,4.52,0,0,1-1.367,3.32,4.52,4.52,0,0,1-3.32,1.367A4.779,4.779,0,0,1,74.5,8.941Zm3.564-5.127a1.563,1.563,0,0,0-2.686,1.123,1.563,1.563,0,1,0,3.125,0A1.521,1.521,0,0,0,78.061,3.814ZM28.939,21.686a1.655,1.655,0,1,0-.439-1.123A1.521,1.521,0,0,0,28.939,21.686ZM44.564,6.061A1.563,1.563,0,0,0,47.25,4.938a1.563,1.563,0,1,0-3.125,0A1.521,1.521,0,0,0,44.564,6.061Zm15.625,12.5a1.655,1.655,0,1,0-.439-1.123A1.521,1.521,0,0,0,60.189,18.561ZM48.813,19a1.5,1.5,0,0,1,1.563,1.563V48.688a1.5,1.5,0,0,1-1.562,1.563h-6.25A1.5,1.5,0,0,1,41,48.688V20.563A1.5,1.5,0,0,1,42.563,19ZM47.25,47.125v-25H44.125v25ZM64.438,31.5A1.5,1.5,0,0,1,66,33.063V48.688a1.5,1.5,0,0,1-1.562,1.563h-6.25a1.5,1.5,0,0,1-1.562-1.562V33.063A1.5,1.5,0,0,1,58.188,31.5ZM62.875,47.125v-12.5H59.75v12.5Z" transform="translate(-25.375 -0.25)" fill="rgba(255,255,255,0.5)"/>
</svg>
