<svg xmlns="http://www.w3.org/2000/svg" width="50" height="50" viewBox="0 0 50 50">
  <path id="Path_1987" data-name="Path 1987" d="M77.523,18.512a3.654,3.654,0,0,1,0,5.176L66.391,34.82a3.654,3.654,0,0,1-5.176,0L59.164,32.77a3.777,3.777,0,0,1-.488-4.59l-2.93-2.832-5.762,5.664.781.879a3.775,3.775,0,0,1,1.172,1.855,4.193,4.193,0,0,1,0,2.2,3.771,3.771,0,0,1-1.172,1.9L39.633,48.98a4.133,4.133,0,0,1-3.027,1.27,3.821,3.821,0,0,1-2.93-1.27l-3.809-3.809a3.821,3.821,0,0,1-1.27-2.93,4.133,4.133,0,0,1,1.27-3.027L41,28.082a4.133,4.133,0,0,1,3.027-1.27,3.821,3.821,0,0,1,2.93,1.27l.879.781L53.5,23.1l-2.832-2.93a3.777,3.777,0,0,1-4.59-.488l-2.051-2.051a3.654,3.654,0,0,1,0-5.176L55.16,1.324a3.654,3.654,0,0,1,5.176,0l2.051,2.051a3.167,3.167,0,0,1,1.074,2.2,3.807,3.807,0,0,1-.488,2.295l8.008,8.008a3.807,3.807,0,0,1,2.295-.488,3.167,3.167,0,0,1,2.2,1.074ZM48.617,35.6a.977.977,0,0,0,0-1.562L44.809,30.23a.977.977,0,0,0-1.562,0l-11.23,11.23a.977.977,0,0,0,0,1.563l3.809,3.809a.977.977,0,0,0,1.563,0Zm26.66-14.062a.592.592,0,0,0,0-.879l-1.953-1.953a.592.592,0,0,0-.879,0L70.883,20.27l-12.3-12.3L60.141,6.4a.592.592,0,0,0,0-.879L58.188,3.57a.592.592,0,0,0-.879,0L46.273,14.605a.592.592,0,0,0,0,.879l2.051,1.953a.35.35,0,0,0,.342.2.607.607,0,0,0,.439-.2l1.563-1.562,12.3,12.3L61.41,29.742a.607.607,0,0,0-.2.439.35.35,0,0,0,.2.342l1.953,2.051a.592.592,0,0,0,.879,0Z" transform="translate(-28.598 -0.25)" fill="rgba(255,255,255,0.5)"/>
</svg>
